<svg xmlns="http://www.w3.org/2000/svg" viewBox="0 0 120 120" width="120" height="120">
  <defs>
    <linearGradient id="bg" x1="0%" y1="0%" x2="100%" y2="100%">
      <stop offset="0%" style="stop-color:#6366f1"/>
      <stop offset="100%" style="stop-color:#8b5cf6"/>
    </linearGradient>
  </defs>
  <rect width="120" height="120" rx="24" fill="url(#bg)"/>
  <g transform="translate(30, 25)" fill="white">
    <!-- Music note -->
    <path d="M20 10 L20 55 C20 55 12 50 8 55 C4 60 8 68 15 66 C22 64 20 58 20 55 L20 20 L50 14 L50 49 C50 49 42 44 38 49 C34 54 38 62 45 60 C52 58 50 52 50 49 L50 10 Z" fill="white" opacity="0.95"/>
    <!-- Sound waves -->
    <path d="M55 30 C60 30 62 25 62 35" stroke="white" stroke-width="3" fill="none" opacity="0.6" stroke-linecap="round"/>
    <path d="M55 30 C65 30 68 20 68 40" stroke="white" stroke-width="3" fill="none" opacity="0.4" stroke-linecap="round"/>
  </g>
</svg>
